<svg xmlns="http://www.w3.org/2000/svg" viewBox="0 0 130 87" role="img" aria-label="VOTAMIN mark">
  <rect width="130" height="87" rx="10" ry="10" fill="#35d0ba"/>
  <g transform="translate(20.000318 2.738005) scale(1.0674001)" fill="#ffffff">
    <path d="M0 17.753999999999998 l0.029297 0 l41.279 0 l-6.3574 13.037 l-6.3574 13.008 c-0.087891 0.14648 -1.9629 3.9844 -5.625 11.514 l-2.2852 4.6875 l-0.029297 0 l-6.1523 -12.539 c-0.029297 -0.087891 -1.7285 -3.6035 -5.1563 -10.576 c-4.0723 -8.3789 -6.2109 -12.744 -6.416 -13.096 c0 -0.029297 -0.9668 -2.0215 -2.9297 -6.0352 z M34.688 21.914 l-28.037 0 s0.9082 1.8457 2.7246 5.5664 l6.0059 12.275 l5.2441 10.723 c0.029297 0.029297 0.029297 0.058594 0.029297 0.087891 l0.029297 0 s1.4355 -2.959 4.3066 -8.8477 c3.6035 -7.3535 5.4492 -11.162 5.5957 -11.426 z M43.330453125 29.795 l6.6504 -13.623 l0.029297 0 c0.14648 0.26367 1.9922 4.0723 5.5957 11.426 l0.82031 1.6992 l0.029297 0 l6.2402 -12.773 c0.11719 -0.23438 0.17578 -0.35156 0.20508 -0.35156 l5.332 10.957 c0.17578 0.32227 2.1094 4.248 5.7715 11.777 l8.2617 16.904 l2.0508 4.1602 l-0.029297 0.029297 l-55.693 0 l-0.029297 -0.029297 c5.0098 -10.283 7.6465 -15.615 7.8809 -16.055 c0 -0.029297 2.2852 -4.7168 6.8848 -14.121 z M35.449253125 55.6934 l8.0859 0 l5.6543 -11.572 c3.0176 -6.123 4.6289 -9.4043 4.834 -9.9023 l-4.0137 -8.2617 c-0.20508 0.38086 -2.4316 4.9219 -6.6797 13.652 l-5.8887 12.07 c-0.20508 0.38086 -0.87891 1.7285 -1.9922 4.0137 z M62.900453125 25.957 l-0.029297 0 c-2.5781 5.2734 -3.9258 8.0273 -4.0137 8.2617 l8.2324 16.846 l2.2559 4.6289 l8.0859 0 l-8.8477 -18.105 z M56.455453125 39.141 l-0.029297 0 l-8.0859 16.553 l16.201 0 c-5.1855 -10.576 -7.8809 -16.113 -8.0859 -16.553 z"/>
  </g>
</svg>